<svg width="758" height="418" viewBox="0 0 758 418" fill="none" xmlns="http://www.w3.org/2000/svg">
<path d="M110.5 149C134.5 125.5 234.5 52 234.5 -20C234.5 -66.5 180.5 -74.5 168.5 -74.5C108 -74.5 38 110 30.5 168.5C29 172.5 21 172.5 22.5 161.5C31 83 36.5 48.5 46 -19.5C50.5 -57 31 -88.5 -7.5 -73.5C-3 29 -24.5 220 -20 331C-6.5 340 13 357.5 21.5 344.5C31 329.5 24.5 251 30.5 240C38 226.5 85 197 102.5 193.5C123 190 145 196.5 157.5 213.5C194 268 42.5 371 -5.5 367C-20 365.5 -34 357 -45 349C-44.5 363.5 -62 372.5 -47 390C-38.5 402 -6 417.5 15.5 417.5C94.5 417.5 215.5 299 216.5 236.5C217.5 175.5 150 149 110.5 149ZM66.5 129C78.5 97 135 -29 184.5 -34.5C189 -35 191.5 -24.5 189.5 -20.5C159.5 39 112 84.5 69.5 132.5C67 134 65.5 132 66.5 129ZM455.332 -90.5C455.332 -127.5 442.332 -159.5 396.832 -159.5C306.832 -159.5 205.332 -2.00001 205.332 177.5C205.332 232 223.832 352 279.832 352C328.332 352 351.332 246 372.332 174.5C369.332 172.5 365.832 167.5 361.832 166C350.332 206 311.832 320.5 293.332 320.5C270.832 320.5 257.332 210.5 260.832 168.5C261.332 165 267.332 157.5 269.832 156.5C363.332 113 455.332 -28 455.332 -90.5ZM438.832 -90C438.832 -10.5 303.832 125.5 269.332 136C264.332 137.5 261.832 133 261.832 128C261.832 104 306.332 -140.5 408.332 -140.5C427.332 -140.5 438.832 -114.5 438.832 -90ZM533.781 172.5C533.781 166 526.781 163.5 524.781 167.5C518.281 175.5 493.781 195.5 481.781 197C479.781 196.5 479.281 195 479.781 192.5C480.781 186 485.781 167 486.281 144.5C487.281 100 459.281 50 409.781 50C364.281 50 338.781 113.5 338.781 128.5C338.781 155 346.281 169 349.781 178C353.281 190 359.281 190 348.281 191.5C321.781 195 316.281 260.5 316.281 271.5C316.281 313 343.781 338 372.281 338C437.281 338 462.781 238 472.781 225.5C496.281 213.5 518.281 198.5 533.781 172.5ZM447.781 209.5C405.281 209.5 377.281 178.5 377.281 133C377.281 112 388.281 81 412.281 81C439.281 81 464.281 108.5 464.281 139.5C464.281 172 457.281 209.5 447.781 209.5ZM440.781 235.5C439.281 262.5 409.781 302 391.281 311.5C385.281 313 379.281 311 375.781 305.5C363.281 291 377.781 227 391.781 225C398.781 225 418.781 235 440.781 235.5ZM746.875 166.5C741.375 173.5 708.375 213.5 694.875 209.5C685.875 207 706.875 131 681.875 106C678.375 103 673.875 101 669.375 102C668.375 86 642.875 55 611.875 55C538.375 55 481.375 133.5 481.375 227C481.375 263 535.375 270.5 537.375 270.5C562.375 271 638.875 175.5 640.875 168.5C651.375 148.5 650.875 243.5 641.875 250C579.875 295 521.875 361.5 521.875 420C521.875 447 546.875 480.5 582.375 480.5C647.875 480.5 692.375 294 692.375 261.5C688.375 233.5 755.875 208.5 757.875 169C757.875 166.5 749.875 162.5 746.875 166.5ZM641.375 129C641.875 135.5 632.375 147 621.375 162C618.375 166 569.375 229 542.375 236.5C515.875 236.5 541.375 98 627.375 105.5C635.375 106 641.375 120 641.375 129ZM574.375 443C561.875 451 537.875 425 545.875 410.5C548.875 367.5 617.375 285.5 637.375 286C637.375 288 641.875 290 641.875 292C641.875 331.5 590.375 435 580.375 440L574.375 443Z" fill="#EBEBEC"/>
</svg>
