<svg xmlns="http://www.w3.org/2000/svg" viewBox="0 0 92.38 78.63"><defs><style>.cls-1{fill:#939598;}.cls-2{fill:#ec008c;}.cls-3{font-size:13.23px;fill:#bcbec0;font-family:Philosopher-Bold, Philosopher;font-weight:700;}.cls-4{letter-spacing:-0.03em;}.cls-5{letter-spacing:-0.02em;}</style></defs><title>logo-coddde</title><g id="Layer_2" data-name="Layer 2"><g id="Layer_1-2" data-name="Layer 1"><g id="Art_3" data-name="Art 3"><path class="cls-1" d="M12.53,11A5.87,5.87,0,0,0,11,7.88,4.11,4.11,0,0,0,8,6.8a5.44,5.44,0,0,0-1.91.33A3.62,3.62,0,0,0,4.54,8.28a5.76,5.76,0,0,0-1,2.15,12.86,12.86,0,0,0-.38,3.38,11,11,0,0,0,.27,2.45,6.54,6.54,0,0,0,.86,2.11,4.55,4.55,0,0,0,1.51,1.45A4.33,4.33,0,0,0,8,20.37a5.35,5.35,0,0,0,2.85-.81A6,6,0,0,0,13,17.19l.78.6a7,7,0,0,1-2.56,2.71,7.64,7.64,0,0,1-3.85.87,7.86,7.86,0,0,1-3.12-.58,6.47,6.47,0,0,1-2.31-1.6,7,7,0,0,1-1.42-2.4,8.79,8.79,0,0,1-.49-3,8.77,8.77,0,0,1,.56-3.15A8,8,0,0,1,2.09,8.12a7,7,0,0,1,2.33-1.7A6.77,6.77,0,0,1,7.34,5.8a8.76,8.76,0,0,1,3.37.54,5.06,5.06,0,0,1,1.9,1.26,2.71,2.71,0,0,1,.52,1.49q.06.91.06,1.89Z"/><path class="cls-1" d="M15.11,13.58a8.84,8.84,0,0,1,.52-3.07A7.26,7.26,0,0,1,17.12,8,7.09,7.09,0,0,1,19.43,6.4a7.88,7.88,0,0,1,6,0A6.84,6.84,0,0,1,27.76,8a7.23,7.23,0,0,1,1.48,2.47,9.16,9.16,0,0,1,0,6.14,7.14,7.14,0,0,1-1.48,2.47,6.73,6.73,0,0,1-2.3,1.65,7.88,7.88,0,0,1-6,0,7,7,0,0,1-2.31-1.65,7.16,7.16,0,0,1-1.49-2.47A8.8,8.8,0,0,1,15.11,13.58Zm11.59,0a9.35,9.35,0,0,0-1.12-5,3.65,3.65,0,0,0-6.26,0,9.55,9.55,0,0,0-1.1,5,9.56,9.56,0,0,0,1.1,5,3.65,3.65,0,0,0,6.26,0A9.36,9.36,0,0,0,26.7,13.58Z"/><path class="cls-1" d="M36.84,6.24a14.55,14.55,0,0,1,4,.5,8.23,8.23,0,0,1,2.87,1.44,5.78,5.78,0,0,1,1.73,2.28,7.51,7.51,0,0,1,.58,3,8,8,0,0,1-.56,3,6.45,6.45,0,0,1-1.64,2.35,7.66,7.66,0,0,1-2.71,1.52,11.62,11.62,0,0,1-3.7.54H32.57V9.13a3.88,3.88,0,0,0-.28-1.61c-.18-.41-.61-.61-1.28-.61h-.22V6.24Zm.29.89-.63,0L36,7.22l-.49.07V19.88L36,20a9.59,9.59,0,0,0,1.18.06h.22a5.06,5.06,0,0,0,2.14-.44,4.89,4.89,0,0,0,1.69-1.28,6,6,0,0,0,1.11-2,8.36,8.36,0,0,0,.4-2.69,8.54,8.54,0,0,0-.39-2.66,5.92,5.92,0,0,0-1.1-2,4.69,4.69,0,0,0-1.7-1.3,5.08,5.08,0,0,0-2.19-.46Z"/><path class="cls-1" d="M56.84,6.24a2.35,2.35,0,0,1,.95.16,1.54,1.54,0,0,1,.58.4,1.29,1.29,0,0,1,.28.56,2.48,2.48,0,0,1,.08.66V9.91h-.66a2.59,2.59,0,0,0-.73-2,3.09,3.09,0,0,0-2.06-.62H51.7V12.8h5.79v1H51.7v6.11h3.81a3.83,3.83,0,0,0,2.08-.54,4.06,4.06,0,0,0,1.43-2l.6.22L59,19.37a3.29,3.29,0,0,1-.64,1.13,1.71,1.71,0,0,1-1.3.42H48.81V9.13a3.88,3.88,0,0,0-.28-1.61c-.18-.41-.61-.61-1.28-.61H47V6.24Z"/><path class="cls-1" d="M27.41,36.33a4.53,4.53,0,0,0,1,1.56,2.21,2.21,0,0,0,1.34.67v.56a3.74,3.74,0,0,1-.5.07,4.21,4.21,0,0,1-.57,0,7.88,7.88,0,0,1-1.14-.1,4.3,4.3,0,0,1-1.21-.4,4,4,0,0,1-1.11-.87,5.25,5.25,0,0,1-.92-1.53l-.52-1.24H17.8l-1.83,4H14.86l6.56-14.68h1Zm-9.14-2.24h5.06l-2.46-5.81Z"/><path class="cls-1" d="M41.71,34.69V24.46h1.11V39.2h-1L32.37,28.13v11H31.25v-12a4,4,0,0,0-.08-.79,1.5,1.5,0,0,0-1-1,2.49,2.49,0,0,0-1-.16h-.11v-.66H30.7a5.45,5.45,0,0,1,2.06.33,3.12,3.12,0,0,1,1.3,1Z"/><path class="cls-1" d="M50.85,24.46a14.13,14.13,0,0,1,4,.5,8.13,8.13,0,0,1,2.87,1.43,5.78,5.78,0,0,1,1.73,2.28,7.56,7.56,0,0,1,.58,3,7.91,7.91,0,0,1-.55,3,6.39,6.39,0,0,1-1.65,2.35,7.7,7.7,0,0,1-2.7,1.52,11.4,11.4,0,0,1-3.71.55H46.58V27.35a3.9,3.9,0,0,0-.28-1.62c-.18-.4-.61-.61-1.27-.61H44.8v-.66Zm.29.88q-.33,0-.63,0a4.41,4.41,0,0,0-.55.06,4.81,4.81,0,0,1-.49.07V38.09l.49.09a7.86,7.86,0,0,0,1.18.07h.23a5,5,0,0,0,2.13-.45,4.69,4.69,0,0,0,1.69-1.28,5.75,5.75,0,0,0,1.11-2,8.39,8.39,0,0,0,.41-2.69,8.5,8.5,0,0,0-.39-2.66,6,6,0,0,0-1.11-2,4.92,4.92,0,0,0-1.7-1.3,5.24,5.24,0,0,0-2.19-.46Z"/><path class="cls-1" d="M20,42.77a14.5,14.5,0,0,1,4,.5,8.15,8.15,0,0,1,2.87,1.44A5.78,5.78,0,0,1,28.59,47a7.51,7.51,0,0,1,.58,3,8,8,0,0,1-.55,3A6.47,6.47,0,0,1,27,55.39a7.7,7.7,0,0,1-2.7,1.52,11.69,11.69,0,0,1-3.71.54H15.71V45.66a3.88,3.88,0,0,0-.28-1.61c-.18-.41-.61-.61-1.28-.61h-.22v-.67Zm.29.89-.63,0-.55.07-.49.07V56.41l.49.09a9.59,9.59,0,0,0,1.18.06h.22a5,5,0,0,0,2.14-.44,4.8,4.8,0,0,0,1.69-1.28,5.8,5.8,0,0,0,1.11-2,8.36,8.36,0,0,0,.4-2.69,8.85,8.85,0,0,0-.38-2.66,5.93,5.93,0,0,0-1.11-2,4.69,4.69,0,0,0-1.7-1.3,5.08,5.08,0,0,0-2.19-.46Z"/><path class="cls-1" d="M40,42.77a2.35,2.35,0,0,1,1,.16,1.46,1.46,0,0,1,.58.4,1.43,1.43,0,0,1,.29.56,3,3,0,0,1,.07.66v1.89h-.66a2.56,2.56,0,0,0-.73-2,3.06,3.06,0,0,0-2-.62H34.84v5.56h5.79v1H34.84v6.11h3.81a3.83,3.83,0,0,0,2.08-.54,4.06,4.06,0,0,0,1.43-2l.6.22-.64,1.76A3.13,3.13,0,0,1,41.48,57a1.69,1.69,0,0,1-1.3.42H32V45.66a3.88,3.88,0,0,0-.28-1.61c-.18-.41-.61-.61-1.27-.61h-.23v-.67Z"/><path class="cls-1" d="M49.26,57.83a9.18,9.18,0,0,1-1.81-.18,6.41,6.41,0,0,1-1.62-.52,3.64,3.64,0,0,1-1.15-.84,1.66,1.66,0,0,1-.45-1.13v-2.6h.67a5.46,5.46,0,0,0,1.43,3.29,4.14,4.14,0,0,0,2.93,1,3.43,3.43,0,0,0,2-.54A1.86,1.86,0,0,0,52,54.67a2.21,2.21,0,0,0-.61-1.59,8.52,8.52,0,0,0-1.68-1.28L47,50.16a6.45,6.45,0,0,1-2.13-1.83,3.75,3.75,0,0,1-.62-2.16,3.31,3.31,0,0,1,1.34-2.78,5.89,5.89,0,0,1,3.64-1,9.18,9.18,0,0,1,1.81.18,6.61,6.61,0,0,1,1.61.52,3.56,3.56,0,0,1,1.16.85A1.61,1.61,0,0,1,54.27,45v2.6H53.6a5.64,5.64,0,0,0-1.42-3.29,3.79,3.79,0,0,0-2.71-1,2.83,2.83,0,0,0-1.89.58,1.93,1.93,0,0,0-.7,1.58,2,2,0,0,0,.17.83,2.33,2.33,0,0,0,.46.68,4.5,4.5,0,0,0,.73.6c.28.2.6.4.95.6l2.74,1.63a8.07,8.07,0,0,1,2.21,1.74,3.19,3.19,0,0,1,.7,2.08,3.62,3.62,0,0,1-1.44,3A6.69,6.69,0,0,1,49.26,57.83Z"/><path class="cls-1" d="M57.43,42.77h2.89V54.56a3.81,3.81,0,0,0,.28,1.61c.18.41.61.62,1.27.62h.23v.66H59.43a3,3,0,0,1-1-.13,1.17,1.17,0,0,1-.62-.47,2.07,2.07,0,0,1-.33-.89,9.1,9.1,0,0,1-.08-1.4Z"/><path class="cls-1" d="M77,56.41a9.5,9.5,0,0,1-2.74,1.13,13,13,0,0,1-3.16.36,8.22,8.22,0,0,1-3.2-.62,7.85,7.85,0,0,1-2.53-1.71A7.54,7.54,0,0,1,63.68,53a8.18,8.18,0,0,1-.6-3.15,8.3,8.3,0,0,1,.52-3,7,7,0,0,1,1.49-2.4A6.86,6.86,0,0,1,67.4,42.9a7.67,7.67,0,0,1,3-.57,9.22,9.22,0,0,1,3.42.54,5,5,0,0,1,2,1.26,2,2,0,0,1,.34.67,6.33,6.33,0,0,1,.16.78,7.93,7.93,0,0,1,.07.84c0,.28,0,.55,0,.8h-.67a5,5,0,0,0-1.55-3,4.77,4.77,0,0,0-3.08-.92,4.36,4.36,0,0,0-2.25.54,4.61,4.61,0,0,0-1.52,1.46,6.57,6.57,0,0,0-.85,2.1,11.11,11.11,0,0,0-.27,2.46,13,13,0,0,0,.38,3.39,5.88,5.88,0,0,0,1,2.19,3.81,3.81,0,0,0,1.56,1.18,5,5,0,0,0,1.91.36,7.8,7.8,0,0,0,1.72-.16,6.1,6.1,0,0,0,1.29-.42v-4a3.4,3.4,0,0,1,.14-.94,1.91,1.91,0,0,1,.6-.87A3.64,3.64,0,0,1,76.14,50a8.1,8.1,0,0,1,2.26-.25v.55a1.19,1.19,0,0,0-1.09.56A3.07,3.07,0,0,0,77,52.43Z"/><path class="cls-1" d="M91.26,53V42.77h1.12V57.52h-1L81.92,46.44v11H80.81v-12a3.35,3.35,0,0,0-.09-.79,1.41,1.41,0,0,0-.33-.63,1.6,1.6,0,0,0-.62-.43,2.71,2.71,0,0,0-1-.15h-.11v-.67h1.56a5.41,5.41,0,0,1,2.06.33,3.23,3.23,0,0,1,1.3,1Z"/><rect class="cls-1" width="46.03" height="1.15" rx="0.5"/><rect class="cls-2" x="13.93" y="62.66" width="28.83" height="1.15" rx="0.5"/><circle class="cls-1" cx="67.13" cy="32.33" r="2.57"/><text class="cls-3" transform="translate(13.93 75.72)"><tspan class="cls-4">к</tspan><tspan class="cls-5" x="6.5" y="0">о</tspan><tspan x="13.51" y="0">д и дизайн</tspan></text></g></g></g></svg>