<svg xmlns="http://www.w3.org/2000/svg" viewBox="0 0 70.25 33.12"><defs><style>.cls-1{fill:#eab134;}</style></defs><title>logo-github</title><g id="Layer_2" data-name="Layer 2"><g id="Layer_1-2" data-name="Layer 1"><g id="Art_3" data-name="Art 3"><path class="cls-1" d="M13.53,22.25H7.63a.28.28,0,0,0-.28.28v2.88a.29.29,0,0,0,.28.28h2.3v3.58A6.88,6.88,0,0,1,8,29.45c-1.68,0-4-.62-4-5.8s2.45-5.86,4.76-5.86a9.36,9.36,0,0,1,3.4.52.28.28,0,0,0,.33-.27l.66-2.79A.28.28,0,0,0,13,15c-.22-.15-1.58-.91-5-.91-3.94,0-8,1.67-8,9.73s4.63,9.27,8.53,9.27a9.61,9.61,0,0,0,5.19-1.38.25.25,0,0,0,.09-.21v-9a.28.28,0,0,0-.28-.28"/><path class="cls-1" d="M44,15.08a.28.28,0,0,0-.28-.27H40.36a.28.28,0,0,0-.28.27v6.43H34.9V15.08a.27.27,0,0,0-.27-.27H31.3a.27.27,0,0,0-.27.27v17.4a.28.28,0,0,0,.27.28h3.33a.28.28,0,0,0,.27-.28V25h5.18v7.44a.29.29,0,0,0,.28.28h3.33a.29.29,0,0,0,.28-.28Z"/><path class="cls-1" d="M19.8,17.37a2.14,2.14,0,1,0-2.14,2.16,2.16,2.16,0,0,0,2.14-2.16"/><path class="cls-1" d="M19.57,28.81v-8a.29.29,0,0,0-.28-.28H16a.32.32,0,0,0-.29.31v11.5c0,.34.21.44.48.44h3c.33,0,.41-.16.41-.44Z"/><path class="cls-1" d="M56.59,20.53h-3.3a.27.27,0,0,0-.27.28v8.52A3.71,3.71,0,0,1,51,30c-1.19,0-1.51-.54-1.51-1.71V20.81a.27.27,0,0,0-.27-.28H45.86a.27.27,0,0,0-.27.28v8c0,3.46,1.92,4.3,4.58,4.3a7.76,7.76,0,0,0,3.93-1.2,6.57,6.57,0,0,0,.12.71.28.28,0,0,0,.24.15h2.13a.27.27,0,0,0,.27-.28V20.81a.27.27,0,0,0-.27-.28"/><path class="cls-1" d="M65.6,20.14a6.2,6.2,0,0,0-3.14.83V15.08a.28.28,0,0,0-.28-.27H58.85a.28.28,0,0,0-.28.27v17.4a.29.29,0,0,0,.28.28h2.31a.28.28,0,0,0,.24-.15,5.21,5.21,0,0,0,.14-.8,6,6,0,0,0,3.95,1.29c3,0,4.76-1.54,4.76-6.9s-2.77-6.06-4.65-6.06m-1.3,9.8a4,4,0,0,1-1.92-.56v-5.5a4.5,4.5,0,0,1,1.71-.56c1.18-.1,2.33.25,2.33,3.09S65.9,30,64.3,29.94"/><path class="cls-1" d="M29.12,20.5H26.63V17.21c0-.13-.06-.19-.21-.19H23q-.21,0-.21.18v3.41L21,21.05a.28.28,0,0,0-.2.27v2.14a.27.27,0,0,0,.27.27h1.74v5.15c0,3.82,2.68,4.2,4.49,4.2a7.5,7.5,0,0,0,2-.33.25.25,0,0,0,.16-.25V30.15a.28.28,0,0,0-.27-.28c-.15,0-.52.06-.9.06-1.23,0-1.64-.57-1.64-1.3v-4.9h2.49a.27.27,0,0,0,.27-.27V20.78a.27.27,0,0,0-.27-.28"/><path class="cls-1" d="M6.2,2.93A2.26,2.26,0,0,0,4.4,2a2.3,2.3,0,0,0-.88.17,2.11,2.11,0,0,0-.69.47,2,2,0,0,0-.46.71,2.3,2.3,0,0,0-.17.88,2.35,2.35,0,0,0,.17.89A2.1,2.1,0,0,0,3.53,6.34a2,2,0,0,0,.85.17A2.42,2.42,0,0,0,6.2,5.65v2.5L6,8.22a5.47,5.47,0,0,1-.91.25,3.88,3.88,0,0,1-.82.09,4.24,4.24,0,0,1-3-1.21A4.42,4.42,0,0,1,.35,6,4.26,4.26,0,0,1,0,4.26,4.2,4.2,0,0,1,.35,2.54,4.13,4.13,0,0,1,1.28,1.2,4.25,4.25,0,0,1,2.64.32,4.4,4.4,0,0,1,5.22.1a6.19,6.19,0,0,1,1,.32Z"/><path class="cls-1" d="M6.48,4.28A4.27,4.27,0,0,1,6.81,2.6a4.17,4.17,0,0,1,.93-1.36A4.13,4.13,0,0,1,9.15.33a5.13,5.13,0,0,1,3.62,0,4.27,4.27,0,0,1,1.42.91,4,4,0,0,1,.93,1.36,4.27,4.27,0,0,1,.33,1.68A4.27,4.27,0,0,1,15.12,6a4.12,4.12,0,0,1-.93,1.36,4.27,4.27,0,0,1-1.42.91A4.86,4.86,0,0,1,11,8.56a4.82,4.82,0,0,1-1.81-.33,4.13,4.13,0,0,1-1.41-.91,4.17,4.17,0,0,1-1.26-3Zm2.2,0a2,2,0,0,0,.19.89,2.2,2.2,0,0,0,.49.71,2.23,2.23,0,0,0,.73.47,2.28,2.28,0,0,0,.87.16,2.37,2.37,0,0,0,.88-.16,2.34,2.34,0,0,0,.73-.47,2.23,2.23,0,0,0,.5-.71,2.18,2.18,0,0,0,.18-.89,2.18,2.18,0,0,0-.18-.89,2.12,2.12,0,0,0-.5-.71,2.34,2.34,0,0,0-.73-.47A2.38,2.38,0,0,0,11,2a2.29,2.29,0,0,0-.87.17,2.23,2.23,0,0,0-.73.47,2.1,2.1,0,0,0-.49.71A2,2,0,0,0,8.68,4.28Z"/><path class="cls-1" d="M16,.23H19.1a3.69,3.69,0,0,1,1.55.33,4.22,4.22,0,0,1,1.27.89,3.82,3.82,0,0,1,.85,1.29,3.85,3.85,0,0,1,.31,1.54,4,4,0,0,1-.3,1.53,4.19,4.19,0,0,1-.85,1.29,4.25,4.25,0,0,1-1.27.9,3.7,3.7,0,0,1-1.56.33H16Zm2.11,6.32h.48a2.52,2.52,0,0,0,1-.18,1.92,1.92,0,0,0,.72-.47,2.12,2.12,0,0,0,.46-.71,2.67,2.67,0,0,0,.15-.91,2.49,2.49,0,0,0-.16-.91,2.27,2.27,0,0,0-.46-.72,2.14,2.14,0,0,0-.72-.47,2.7,2.7,0,0,0-1-.17h-.48Z"/><path class="cls-1" d="M28.23,2h-2.5V3.36h2.36V5.15H25.73v1.4h2.5V8.33H23.62V.23h4.61Z"/><rect class="cls-1" y="10.98" width="28.23" height="0.81"/></g></g></g></svg>